<svg width="412" height="917" viewBox="0 0 412 917" fill="none" xmlns="http://www.w3.org/2000/svg">
<g clip-path="url(#clip0_299_43)">
<rect width="412" height="917" rx="30" transform="matrix(-1 0 0 1 412 0)" fill="#FDD259"/>
<path d="M41.6331 602.522C41.2307 602.164 40.6244 602.608 40.8442 603.1L41.8947 605.45C43.5003 609.042 42.8507 613.241 40.2347 616.18L38.5232 618.103C38.1651 618.505 38.609 619.111 39.1008 618.891L41.4506 617.841C45.0424 616.235 49.242 616.885 52.1807 619.501L54.1033 621.212C54.5057 621.571 55.1121 621.127 54.8922 620.635L53.8418 618.285C52.2361 614.693 52.8858 610.494 55.5018 607.555L57.2132 605.632C57.5714 605.23 57.1275 604.624 56.6357 604.843L54.2858 605.894C50.694 607.5 46.4944 606.85 43.5557 604.234L41.6331 602.522Z" fill="#5B00FF"/>
<path d="M374.633 832.522C374.231 832.164 373.624 832.608 373.844 833.1L374.895 835.45C376.5 839.042 375.851 843.241 373.235 846.18L371.523 848.103C371.165 848.505 371.609 849.111 372.101 848.891L374.451 847.841C378.042 846.235 382.242 846.885 385.181 849.501L387.103 851.212C387.506 851.571 388.112 851.127 387.892 850.635L386.842 848.285C385.236 844.693 385.886 840.494 388.502 837.555L390.213 835.632C390.571 835.23 390.127 834.624 389.636 834.843L387.286 835.894C383.694 837.5 379.494 836.85 376.556 834.234L374.633 832.522Z" fill="#5B00FF"/>
<path d="M282.633 233.522C282.231 233.164 281.624 233.608 281.844 234.1L282.895 236.45C284.5 240.042 283.851 244.241 281.235 247.18L279.523 249.103C279.165 249.505 279.609 250.111 280.101 249.891L282.451 248.841C286.042 247.235 290.242 247.885 293.181 250.501L295.103 252.212C295.506 252.571 296.112 252.127 295.892 251.635L294.842 249.285C293.236 245.693 293.886 241.494 296.502 238.555L298.213 236.632C298.571 236.23 298.127 235.624 297.636 235.843L295.286 236.894C291.694 238.5 287.494 237.85 284.556 235.234L282.633 233.522Z" fill="#5B00FF"/>
<path d="M58.6331 65.5224C58.2307 65.1643 57.6244 65.6082 57.8442 66.1L58.8947 68.4498C60.5003 72.0417 59.8507 76.2412 57.2347 79.18L55.5232 81.1025C55.1651 81.5049 55.609 82.1113 56.1008 81.8915L58.4506 80.841C62.0424 79.2353 66.242 79.885 69.1807 82.501L71.1033 84.2124C71.5057 84.5706 72.1121 84.1267 71.8922 83.6349L70.8418 81.285C69.2361 77.6932 69.8858 73.4936 72.5018 70.5549L74.2132 68.6323C74.5714 68.23 74.1275 67.6236 73.6357 67.8434L71.2858 68.8939C67.694 70.4996 63.4944 69.8499 60.5557 67.2339L58.6331 65.5224Z" fill="#5B00FF"/>
<g filter="url(#filter0_d_299_43)">
<path d="M-10.5 135.998C-10.5 135.998 1.90539 132.751 11.5 129.498C36.363 121.068 53.5138 133.232 79.5 129.498C106.06 125.681 129.158 109.141 154 98.9977C183.315 87.0274 188.301 86.2101 215.5 69.9977C237.07 57.1408 264.354 28.8081 289 24C324.008 17.1705 376.514 4.02089 415.253 -6.04059C420.037 -7.28308 422.852 0.5346 418.404 2.68919C385.65 18.5539 346.195 39.0484 335.5 50.498C303.955 84.2674 320.185 139.396 289 173.497C265.475 199.222 255.135 186.616 226.5 206.497C204.203 221.978 182.838 237.375 161 253.497C134.939 272.736 123.061 272.306 104 298.497C83.8145 326.234 97 373.501 79.5 382C69.1506 387.026 39.5649 414.437 17.1151 435.999C6.83428 445.873 -10.5 438.627 -10.5 424.372V135.998Z" fill="#5B00FF"/>
</g>
<g filter="url(#filter1_d_299_43)">
<path d="M39 618C22.8548 610.357 -5 605.5 -5 605.5V874.5C-5 874.5 44.9943 879.016 76.5 874.5C97.7835 871.449 109.56 869.613 131 868C167.813 865.23 178.141 896.398 214.5 890C248.636 883.993 282.772 857.66 309 835C334.845 812.671 329.552 794.127 358.5 776C372.5 767.233 396.5 763.5 409 748.5C415.876 740.248 408.527 719.038 399 724C375 736.5 336.694 743.766 299 736.5C266.159 730.17 253.969 709.326 222.5 698C177.374 681.758 143.184 700.719 101.5 677C72.3268 660.4 69.3373 632.362 39 618Z" fill="#5B00FF"/>
</g>
<g filter="url(#filter2_d_299_43)">
<path d="M388.001 96C396.415 86.3053 413.001 81.5 413.001 81.5H431.001V671C431.001 671 412.806 660.891 400.001 658C371.567 651.581 355.595 672.787 326.501 671C289.364 668.719 273.591 646.045 237.501 637C200.288 627.674 174.018 642.737 140.001 625C110.127 609.423 105.003 574.5 79.5008 563.5C64.5913 557.069 44.2141 552.689 29.8586 550.16C21.2529 548.643 16.0841 539.442 19.6914 531.483C29.3838 510.098 46.1045 473.977 52.0008 466C76.3742 433.027 109.591 453.544 131.001 426.5C149.947 402.568 134.499 352.742 162.001 339.5C202.501 320 209.589 299.715 254.001 276C305.501 248.5 322.604 244.406 348.501 208C374.398 171.594 365.001 122.5 388.001 96Z" fill="#5B00FF"/>
</g>
</g>
<defs>
<filter id="filter0_d_299_43" x="-34.5" y="-30.1736" width="479.133" height="494.723" filterUnits="userSpaceOnUse" color-interpolation-filters="sRGB">
<feFlood flood-opacity="0" result="BackgroundImageFix"/>
<feColorMatrix in="SourceAlpha" type="matrix" values="0 0 0 0 0 0 0 0 0 0 0 0 0 0 0 0 0 0 127 0" result="hardAlpha"/>
<feOffset/>
<feGaussianBlur stdDeviation="12"/>
<feComposite in2="hardAlpha" operator="out"/>
<feColorMatrix type="matrix" values="0 0 0 0 0 0 0 0 0 0 0 0 0 0 0 0 0 0 0.68 0"/>
<feBlend mode="normal" in2="BackgroundImageFix" result="effect1_dropShadow_299_43"/>
<feBlend mode="normal" in="SourceGraphic" in2="effect1_dropShadow_299_43" result="shape"/>
</filter>
<filter id="filter1_d_299_43" x="-29" y="581.5" width="464.695" height="333.368" filterUnits="userSpaceOnUse" color-interpolation-filters="sRGB">
<feFlood flood-opacity="0" result="BackgroundImageFix"/>
<feColorMatrix in="SourceAlpha" type="matrix" values="0 0 0 0 0 0 0 0 0 0 0 0 0 0 0 0 0 0 127 0" result="hardAlpha"/>
<feOffset/>
<feGaussianBlur stdDeviation="12"/>
<feComposite in2="hardAlpha" operator="out"/>
<feColorMatrix type="matrix" values="0 0 0 0 0 0 0 0 0 0 0 0 0 0 0 0 0 0 0.68 0"/>
<feBlend mode="normal" in2="BackgroundImageFix" result="effect1_dropShadow_299_43"/>
<feBlend mode="normal" in="SourceGraphic" in2="effect1_dropShadow_299_43" result="shape"/>
</filter>
<filter id="filter2_d_299_43" x="-5.47266" y="57.5" width="460.473" height="637.607" filterUnits="userSpaceOnUse" color-interpolation-filters="sRGB">
<feFlood flood-opacity="0" result="BackgroundImageFix"/>
<feColorMatrix in="SourceAlpha" type="matrix" values="0 0 0 0 0 0 0 0 0 0 0 0 0 0 0 0 0 0 127 0" result="hardAlpha"/>
<feOffset/>
<feGaussianBlur stdDeviation="12"/>
<feComposite in2="hardAlpha" operator="out"/>
<feColorMatrix type="matrix" values="0 0 0 0 0 0 0 0 0 0 0 0 0 0 0 0 0 0 0.68 0"/>
<feBlend mode="normal" in2="BackgroundImageFix" result="effect1_dropShadow_299_43"/>
<feBlend mode="normal" in="SourceGraphic" in2="effect1_dropShadow_299_43" result="shape"/>
</filter>
<clipPath id="clip0_299_43">
<rect width="412" height="917" rx="30" transform="matrix(-1 0 0 1 412 0)" fill="white"/>
</clipPath>
</defs>
</svg>
