<svg width="412" height="639" viewBox="0 0 412 639" fill="none" xmlns="http://www.w3.org/2000/svg">
<g filter="url(#filter0_d_166_815)">
<path d="M388.001 39C396.415 29.3053 413.001 24.5 413.001 24.5H431.001V614C431.001 614 412.806 603.891 400.001 601C371.567 594.581 355.595 615.787 326.501 614C289.364 611.719 273.591 589.045 237.501 580C200.288 570.674 174.018 585.737 140.001 568C110.127 552.423 105.003 517.5 79.5008 506.5C64.5913 500.069 44.2141 495.689 29.8586 493.16C21.2529 491.643 16.0841 482.442 19.6914 474.483C29.3838 453.098 46.1045 416.977 52.0008 409C76.3742 376.027 109.591 396.544 131.001 369.5C149.947 345.568 134.499 295.742 162.001 282.5C202.501 263 209.589 242.715 254.001 219C305.501 191.5 322.604 187.406 348.501 151C374.398 114.594 365.001 65.5 388.001 39Z" fill="#5B00FF"/>
</g>
<defs>
<filter id="filter0_d_166_815" x="-5.47266" y="0.5" width="460.473" height="637.607" filterUnits="userSpaceOnUse" color-interpolation-filters="sRGB">
<feFlood flood-opacity="0" result="BackgroundImageFix"/>
<feColorMatrix in="SourceAlpha" type="matrix" values="0 0 0 0 0 0 0 0 0 0 0 0 0 0 0 0 0 0 127 0" result="hardAlpha"/>
<feOffset/>
<feGaussianBlur stdDeviation="12"/>
<feComposite in2="hardAlpha" operator="out"/>
<feColorMatrix type="matrix" values="0 0 0 0 0 0 0 0 0 0 0 0 0 0 0 0 0 0 0.68 0"/>
<feBlend mode="normal" in2="BackgroundImageFix" result="effect1_dropShadow_166_815"/>
<feBlend mode="normal" in="SourceGraphic" in2="effect1_dropShadow_166_815" result="shape"/>
</filter>
</defs>
</svg>
