<svg width="102" height="211" viewBox="0 0 102 211" fill="none" xmlns="http://www.w3.org/2000/svg">
<g filter="url(#filter0_d_166_823)">
<path d="M73.0447 165.474C37.9032 147.068 23.8851 102.363 40.5842 66.7079C28.5772 91.1381 4.96713 136.101 4.05627 137.873C4.16689 137.911 4.38026 137.991 4.69135 138.11C9.59273 139.99 39.2818 151.956 73.0447 165.474Z" fill="white"/>
<path d="M40.6053 66.7188C59.2899 30.3709 104.36 15.1626 140.708 33.8471C140.708 33.8471 65.1579 110.823 40.6053 66.7188Z" fill="white"/>
<path d="M172.69 133.492C156.28 165.414 119.873 180.345 86.6292 170.852C110.135 180.267 134.135 189.886 151.854 196.991L172.69 133.492Z" fill="white"/>
<path d="M140.708 33.8471C177.055 52.5317 191.374 97.1443 172.69 133.492C119.202 117.241 140.708 33.8471 140.708 33.8471Z" fill="white"/>
<path d="M141.54 33.7126L141.536 33.7161C177.673 52.7009 191.831 97.2963 173.153 133.682L152.329 197.148L152.163 197.654L151.668 197.456C133.949 190.351 109.949 180.73 86.4432 171.315L86.7661 170.371C119.601 179.748 155.542 165.133 171.969 133.792C145.372 125.389 137.445 100.378 136.142 77.6043C135.484 66.1199 136.505 55.152 137.688 47.0593C138.28 43.0119 138.914 39.6806 139.399 37.3601C139.556 36.6087 139.698 35.9631 139.818 35.4334C139.288 35.9544 138.597 36.6295 137.758 37.4304C135.64 39.4533 132.588 42.2929 128.848 45.562C121.371 52.0987 111.138 60.361 100.129 67.2459C89.1308 74.1235 77.3052 79.6612 66.6524 80.6869C61.3175 81.2005 56.2565 80.5846 51.7401 78.4203C47.4443 76.3616 43.6749 72.9172 40.6395 67.7817C24.6731 103.06 38.6643 146.902 73.2766 165.031L72.8585 165.939C39.0904 152.418 9.40866 140.455 4.51186 138.577C4.19985 138.457 3.99424 138.381 3.89294 138.346L3.34822 138.158L3.61208 137.645C4.5288 135.861 28.1314 90.9117 40.1355 66.4872L40.1568 66.497L40.1604 66.4901C58.8717 30.0901 103.874 14.7449 140.377 33.1196L140.379 33.1162L141.54 33.7126Z" stroke="white"/>
</g>
<circle cx="80.7867" cy="90.1853" r="4.5" transform="rotate(27.2054 80.7867 90.1853)" fill="white"/>
<path d="M73.4705 164.569L87.0522 169.864L86.5825 171.872L72.5561 166.348L73.4705 164.569Z" fill="white"/>
<path d="M109.689 85.3651L96.8884 110.268L107.561 115.754" stroke="white" stroke-width="2" stroke-linecap="square"/>
<path d="M74.6191 121.871C78.991 130.864 87.5937 141.471 108.415 139.243" stroke="white" stroke-width="2" stroke-linecap="square"/>
<defs>
<filter id="filter0_d_166_823" x="0.638672" y="24.8306" width="181.254" height="173.486" filterUnits="userSpaceOnUse" color-interpolation-filters="sRGB">
<feFlood flood-opacity="0" result="BackgroundImageFix"/>
<feColorMatrix in="SourceAlpha" type="matrix" values="0 0 0 0 0 0 0 0 0 0 0 0 0 0 0 0 0 0 127 0" result="hardAlpha"/>
<feOffset dx="-2"/>
<feComposite in2="hardAlpha" operator="out"/>
<feColorMatrix type="matrix" values="0 0 0 0 0 0 0 0 0 0 0 0 0 0 0 0 0 0 1 0"/>
<feBlend mode="normal" in2="BackgroundImageFix" result="effect1_dropShadow_166_823"/>
<feBlend mode="normal" in="SourceGraphic" in2="effect1_dropShadow_166_823" result="shape"/>
</filter>
</defs>
</svg>
