<svg width="412" height="334" viewBox="0 0 412 334" fill="none" xmlns="http://www.w3.org/2000/svg">
<g filter="url(#filter0_d_166_814)">
<path d="M39 37C22.8548 29.3567 -5 24.5 -5 24.5V293.5C-5 293.5 44.9943 298.016 76.5 293.5C97.7835 290.449 109.56 288.613 131 287C167.813 284.23 178.141 315.398 214.5 309C248.636 302.993 282.772 276.66 309 254C334.845 231.671 329.552 213.127 358.5 195C372.5 186.233 396.5 182.5 409 167.5C415.876 159.248 408.527 138.038 399 143C375 155.5 336.694 162.766 299 155.5C266.159 149.17 253.969 128.326 222.5 117C177.374 100.758 143.184 119.719 101.5 96C72.3268 79.4003 69.3373 51.3621 39 37Z" fill="#5B00FF"/>
</g>
<defs>
<filter id="filter0_d_166_814" x="-29" y="0.5" width="464.695" height="333.368" filterUnits="userSpaceOnUse" color-interpolation-filters="sRGB">
<feFlood flood-opacity="0" result="BackgroundImageFix"/>
<feColorMatrix in="SourceAlpha" type="matrix" values="0 0 0 0 0 0 0 0 0 0 0 0 0 0 0 0 0 0 127 0" result="hardAlpha"/>
<feOffset/>
<feGaussianBlur stdDeviation="12"/>
<feComposite in2="hardAlpha" operator="out"/>
<feColorMatrix type="matrix" values="0 0 0 0 0 0 0 0 0 0 0 0 0 0 0 0 0 0 0.68 0"/>
<feBlend mode="normal" in2="BackgroundImageFix" result="effect1_dropShadow_166_814"/>
<feBlend mode="normal" in="SourceGraphic" in2="effect1_dropShadow_166_814" result="shape"/>
</filter>
</defs>
</svg>
