<svg width="20" height="20" viewBox="0 0 20 20" fill="none" xmlns="http://www.w3.org/2000/svg">
<path d="M3.63313 0.52245C3.23075 0.164264 2.62436 0.608169 2.84421 1.09997L3.89468 3.44983C5.50035 7.04166 4.85066 11.2412 2.23467 14.18L0.52324 16.1025C0.165054 16.5049 0.608958 17.1113 1.10076 16.8915L3.45062 15.841C7.04245 14.2353 11.242 14.885 14.1807 17.501L16.1033 19.2124C16.5057 19.5706 17.1121 19.1267 16.8922 18.6349L15.8418 16.285C14.2361 12.6932 14.8858 8.49364 17.5018 5.55491L19.2132 3.63234C19.5714 3.22996 19.1275 2.62357 18.6357 2.84342L16.2858 3.89389C12.694 5.49956 8.49443 4.84987 5.5557 2.23388L3.63313 0.52245Z" fill="#5B00FF"/>
</svg>
